<svg width="16" height="24" viewBox="0 0 16 24" fill="none" xmlns="http://www.w3.org/2000/svg">
<g id="logos:bing" clip-path="url(#clip0_34_157)">
<path id="Vector" d="M8.0081 7.5493C7.56688 7.60058 7.23039 7.95891 7.19909 8.41082C7.18561 8.60548 7.18981 8.61866 7.63121 9.75445C8.63532 12.3384 8.8786 12.9603 8.91948 13.0478C9.01864 13.2598 9.158 13.4592 9.33218 13.6382C9.46579 13.7755 9.55394 13.8494 9.70295 13.9489C9.96497 14.1239 10.0949 14.1722 11.1144 14.4741C12.1073 14.7682 12.6499 14.9636 13.1173 15.1956C13.7229 15.4962 14.1455 15.8381 14.4128 16.2438C14.6046 16.5349 14.7744 17.0569 14.8483 17.5823C14.8772 17.7878 14.8774 18.2418 14.8487 18.4275C14.7863 18.8305 14.6618 19.1683 14.4713 19.4509C14.37 19.6012 14.4052 19.576 14.5525 19.3928C14.9694 18.8745 15.394 17.9887 15.6107 17.1854C15.873 16.2131 15.9087 15.1691 15.7134 14.181C15.3332 12.2568 14.1184 10.5962 12.4076 9.66185C12.3001 9.60309 11.8907 9.38845 11.3356 9.0999C11.2504 9.05561 11.1653 9.01119 11.0803 8.96666C11.0242 8.93715 10.9093 8.87715 10.8251 8.83342C10.7408 8.78963 10.4983 8.66332 10.2862 8.55266L9.75874 8.27765C9.58663 8.18795 9.41459 8.09811 9.24262 8.00814C8.69253 7.72021 8.45971 7.60379 8.39334 7.58363C8.32375 7.56241 8.14691 7.53526 8.10255 7.53891C8.09315 7.53965 8.05072 7.54435 8.0081 7.5493Z" fill="url(#paint0_radial_34_157)"/>
<path id="Vector_2" d="M9.20719 17.1955C9.17669 17.2136 9.13395 17.2397 9.11211 17.2535C9.09022 17.2675 9.04178 17.2976 9.0043 17.3205C8.7319 17.488 8.45965 17.6558 8.18756 17.8238C8.02099 17.9266 7.8546 18.0296 7.68838 18.1329C7.6149 18.1787 7.54116 18.224 7.46719 18.2689C7.4391 18.2857 7.31917 18.3595 7.20059 18.4331C7.04761 18.5279 6.89448 18.6224 6.74119 18.7167C6.56331 18.8261 6.38558 18.9357 6.20799 19.0456C6.05312 19.1414 5.89811 19.237 5.74296 19.3324C5.64622 19.3917 5.5569 19.449 5.5444 19.4597C5.52585 19.4756 4.66574 20.0083 4.23418 20.2713C3.90634 20.471 3.52717 20.6045 3.13902 20.657C2.95834 20.6814 2.61634 20.6815 2.43616 20.6571C1.9475 20.5911 1.49743 20.4089 1.11189 20.1211C0.960713 20.0082 0.675991 19.7237 0.567187 19.5768C0.310671 19.2305 0.144774 18.8591 0.0588569 18.4389C0.0390631 18.3421 0.0203827 18.2605 0.0172899 18.2573C0.00924867 18.2493 0.0237848 18.3953 0.0499497 18.5863C0.0771662 18.785 0.135125 19.0723 0.197599 19.318C0.680939 21.2197 2.05636 22.7664 3.91822 23.5023C4.45438 23.7141 4.99543 23.8476 5.58411 23.913C5.80531 23.9378 6.43148 23.9477 6.66226 23.9301C7.72104 23.85 8.64288 23.5383 9.58853 22.9407C9.67277 22.8875 9.831 22.7876 9.94018 22.7189C10.0425 22.6545 10.1446 22.5898 10.2465 22.5247C10.3057 22.4867 10.3772 22.4417 10.4053 22.4249C10.4472 22.3993 10.4888 22.3731 10.5301 22.3464C10.5707 22.3202 10.7442 22.2103 10.9158 22.1025L11.6019 21.6691L11.8375 21.5203L11.8459 21.515L11.8719 21.4986L11.8842 21.4908L12.0577 21.3812L12.6571 21.0026C13.4209 20.5227 13.6486 20.3542 14.0034 20.0066C14.1514 19.8617 14.3744 19.6144 14.3854 19.583C14.3877 19.5766 14.4274 19.5155 14.4735 19.4471C14.6613 19.1693 14.7865 18.8289 14.8486 18.4275C14.8774 18.2418 14.8772 17.7878 14.8483 17.5824C14.7924 17.1852 14.6655 16.7348 14.5287 16.448C14.3043 15.9777 13.8264 15.5503 13.1398 15.2062C12.9503 15.1111 12.7545 15.0241 12.7326 15.0253C12.7223 15.0259 12.0834 15.4164 11.3128 15.8931C10.5423 16.3701 9.87356 16.7839 9.82673 16.8129C9.7674 16.8497 9.70785 16.886 9.64809 16.9221L9.20719 17.1955Z" fill="url(#paint1_radial_34_157)"/>
<path id="Vector_3" d="M0.00578079 14.908L0.009121 18.229L0.0521107 18.4219C0.186461 19.0248 0.419348 19.4595 0.824193 19.8632C1.01458 20.0531 1.16019 20.1677 1.36654 20.2898C1.80324 20.5482 2.27316 20.6756 2.78786 20.6755C3.327 20.6751 3.79339 20.5407 4.27395 20.2469C4.35504 20.1974 4.67285 20.0017 4.98009 19.8121L5.53877 19.4675V11.5871L5.53865 7.98255C5.53852 5.68294 5.53432 4.31723 5.52702 4.21009C5.48124 3.53679 5.19962 2.9178 4.72611 2.44962C4.58081 2.30593 4.45667 2.20993 4.08677 1.95539C3.83715 1.78359 3.58759 1.61171 3.33807 1.43976C2.81628 1.08011 2.29447 0.720504 1.77263 0.360939C1.41516 0.114444 1.3872 0.0973718 1.27914 0.058712C1.13861 0.00842336 0.989657 -0.0100715 0.848069 0.00520686C0.435368 0.0497429 0.104997 0.347764 0.0191416 0.752856C0.00578079 0.815949 0.00330657 1.65471 0.003121 6.20723L0.00293543 11.5871H0.00250244L0.00578079 14.908Z" fill="url(#paint2_linear_34_157)"/>
</g>
<defs>
<radialGradient id="paint0_radial_34_157" cx="0" cy="0" r="1" gradientUnits="userSpaceOnUse" gradientTransform="translate(177.017 -888.167) rotate(-140.294) scale(1052.81 1453.04)">
<stop stop-color="#00CACC"/>
<stop offset="1" stop-color="#048FCE"/>
</radialGradient>
<radialGradient id="paint1_radial_34_157" cx="0" cy="0" r="1" gradientUnits="userSpaceOnUse" gradientTransform="translate(267.9 517.914) rotate(-35.5312) scale(1511.06 1184.47)">
<stop stop-color="#00BBEC"/>
<stop offset="1" stop-color="#2756A9"/>
</radialGradient>
<linearGradient id="paint2_linear_34_157" x1="276.816" y1="0" x2="276.816" y2="2067.55" gradientUnits="userSpaceOnUse">
<stop stop-color="#00BBEC"/>
<stop offset="1" stop-color="#2756A9"/>
</linearGradient>
<clipPath id="clip0_34_157">
<rect width="15.84" height="24" fill="white"/>
</clipPath>
</defs>
</svg>
