<svg width="20" height="18" viewBox="0 0 20 18" fill="none" xmlns="http://www.w3.org/2000/svg">
<g id="logos:google-gmail" clip-path="url(#clip0_7_73)">
<path id="Vector" d="M4.54547 17.9114V8.68664L2.14898 6.06936L0 4.61696V16.2835C0 17.1842 0.611328 17.9114 1.36367 17.9114H4.54547Z" fill="#4285F4"/>
<path id="Vector_2" d="M15.4545 17.9114H18.6363C19.3909 17.9114 20 17.1815 20 16.2835V4.61705L17.5659 6.2806L15.4545 8.68664V17.9114Z" fill="#34A853"/>
<path id="Vector_3" d="M4.54545 8.68663L4.21936 5.08224L4.54545 1.63249L9.99999 6.51618L15.4545 1.63249L15.8193 4.89599L15.4545 8.68663L9.99999 13.5703L4.54545 8.68663Z" fill="#EA4335"/>
<path id="Vector_4" d="M15.4545 1.6325V8.68663L20 4.61695V2.44642C20 0.433308 18.075 -0.714309 16.7273 0.492996L15.4545 1.6325Z" fill="#FBBC04"/>
<path id="Vector_5" d="M0 4.61697L2.09055 6.48878L4.54547 8.68665V1.63251L3.27266 0.493009C1.92266 -0.71439 0 0.43332 0 2.44634V4.61697Z" fill="#C5221F"/>
</g>
<defs>
<clipPath id="clip0_7_73">
<rect width="20" height="18" fill="white"/>
</clipPath>
</defs>
</svg>
