<svg width="24" height="24" viewBox="0 0 24 24" fill="none" xmlns="http://www.w3.org/2000/svg">
<g id="emblem 1" clip-path="url(#clip0_10_89)">
<g id="Group">
<path id="Vector" d="M12.0041 23.8417C18.5441 23.8417 23.8459 18.54 23.8459 12C23.8459 5.45999 18.5441 0.158211 12.0041 0.158211C5.4641 0.158211 0.162354 5.45995 0.162354 12C0.162354 18.5401 5.46409 23.8417 12.0041 23.8417Z" fill="white"/>
<path id="Vector_2" d="M2.52786 9.96549C2.58746 9.96487 2.64554 9.94644 2.6948 9.91252C2.74405 9.87861 2.78228 9.83073 2.80466 9.77491C2.82704 9.71908 2.83257 9.65782 2.82057 9.59883C2.80856 9.53983 2.77955 9.48575 2.73719 9.44338C2.69483 9.40101 2.64102 9.37225 2.58252 9.36073C2.52402 9.3492 2.46345 9.35543 2.40844 9.37861C2.35343 9.4018 2.30645 9.44091 2.27339 9.49103C2.24034 9.54115 2.22269 9.60003 2.22269 9.66026C2.22289 9.70055 2.23095 9.7404 2.24639 9.77755C2.26184 9.8147 2.28438 9.8484 2.31271 9.87675C2.34105 9.90509 2.37464 9.92752 2.41155 9.94274C2.44847 9.95797 2.48799 9.9657 2.52786 9.96549Z" fill="#1D1D1B"/>
<path id="Vector_3" d="M21.4754 9.96549C21.535 9.96487 21.593 9.94644 21.6423 9.91253C21.6916 9.87862 21.7298 9.83074 21.7522 9.77492C21.7745 9.7191 21.7801 9.65783 21.7681 9.59884C21.7561 9.53984 21.7271 9.48575 21.6847 9.44338C21.6424 9.40101 21.5885 9.37225 21.53 9.36073C21.4715 9.3492 21.411 9.35542 21.356 9.37861C21.3009 9.4018 21.254 9.44091 21.2209 9.49103C21.1878 9.54115 21.1702 9.60003 21.1702 9.66026C21.1704 9.70055 21.1784 9.74041 21.1939 9.77755C21.2093 9.8147 21.2319 9.84841 21.2602 9.87675C21.2885 9.9051 21.3221 9.92752 21.359 9.94275C21.396 9.95798 21.4355 9.9657 21.4754 9.96549Z" fill="#1D1D1B"/>
<path id="Vector_4" d="M12.0038 -2.0025e-05C9.63319 -0.0016597 7.31444 0.700981 5.33591 2.02051C3.36204 3.33863 1.82338 5.21252 0.914555 7.40514C0.00596782 9.59533 -0.232418 12.0104 0.230146 14.3388C0.692742 16.6668 1.83533 18.8053 3.51341 20.4839C5.19148 22.1625 7.32967 23.3058 9.65755 23.7691C11.9851 24.2325 14.396 23.9953 16.5913 23.0869C18.7843 22.1787 20.6586 20.6407 21.9773 18.6672C23.2947 16.6985 23.9991 14.3766 24 12C24 8.81806 22.7362 5.76637 20.4866 3.51605C18.237 1.26572 15.1857 0.000979127 12.0038 -2.0025e-05ZM12.0038 23.6759C9.69662 23.6768 7.4401 22.9924 5.51486 21.7076C3.59415 20.4242 2.09712 18.6001 1.21311 16.4658C0.329327 14.3341 0.0978216 11.9836 0.54845 9.71762C0.999131 7.45197 2.11152 5.37082 3.74496 3.73739C5.3784 2.10396 7.45951 0.991575 9.72519 0.540891C11.9905 0.0901944 14.3369 0.321295 16.4734 1.20554C18.6076 2.08955 20.4317 3.58657 21.7151 5.5073C23.214 7.75052 23.8893 10.4528 23.624 13.1462C23.3587 15.8396 22.1696 18.3544 20.2626 20.2551C18.0625 22.4494 15.095 23.6786 12.0038 23.676V23.6759Z" fill="#1D1D1B"/>
<path id="Vector_5" d="M12.0035 4.35165C10.4927 4.35107 9.01503 4.79931 7.75431 5.64062C6.49949 6.47745 5.51902 7.67216 4.93735 9.0731C4.35888 10.471 4.20766 12.0118 4.50313 13.4972C4.7986 14.9827 5.52726 16.3448 6.59531 17.4082C7.39795 18.2095 8.36518 18.8225 9.42842 19.2038C10.4917 19.5852 11.6249 19.7255 12.7478 19.6149C13.8707 19.5043 14.9558 19.1455 15.9262 18.5639C16.8966 17.9822 17.7285 17.192 18.3629 16.2492C19.3444 14.7803 19.7866 13.0107 19.6129 11.247C19.4392 9.48322 18.6605 7.83642 17.4117 6.5918C15.971 5.15485 14.0277 4.34991 12.0035 4.35165ZM12.0035 19.4675C10.5284 19.4681 9.08571 19.0304 7.8548 18.209C6.62964 17.392 5.67235 16.2255 5.10444 14.8577C4.53965 13.4929 4.392 11.9885 4.68048 10.5382C4.96897 9.08785 5.68039 7.75796 6.72318 6.71968C7.50683 5.93739 8.45118 5.33886 9.48929 4.96652C10.5274 4.59417 11.6338 4.45714 12.7302 4.56512C13.8266 4.6731 14.886 5.02346 15.8334 5.59136C16.7808 6.15925 17.593 6.93079 18.2125 7.85128C19.0321 9.07637 19.4704 10.5212 19.471 12C19.471 13.9805 18.6843 15.8799 17.2838 17.2803C15.8834 18.6807 13.984 19.4675 12.0035 19.4675Z" fill="#1D1D1B"/>
<path id="Vector_6" d="M16.5322 8.1156H14.7728V7.67099H14.1058V5.75326H11.4233C11.192 5.74122 10.9608 5.77975 10.7456 5.86623C10.5304 5.95271 10.3362 6.0851 10.1762 6.25436C9.89143 6.59728 9.74365 7.03529 9.76178 7.48257V8.11182H7.6632L6.78534 16.3253L12.0902 18.5859L17.3951 16.3253L16.5322 8.1156ZM12.1052 18.3937H12.0864L6.99626 16.2236L7.83268 8.3341V8.28886H9.95766V7.48257C9.93726 7.07123 10.0719 6.66736 10.3344 6.35232C10.4773 6.20327 10.65 6.08682 10.8411 6.01079C11.0321 5.93476 11.2371 5.90091 11.4421 5.91151H13.9439V7.82545H14.6107V8.28886H16.3853V8.31148L17.2142 16.201L12.1052 18.3937Z" fill="#1D1D1B"/>
<path id="Vector_7" fill-rule="evenodd" clip-rule="evenodd" d="M14.5994 9.18939H13.9326V10.4026H14.5994V10.7115H16.3212L16.099 8.59784H14.5994V9.18939Z" fill="#00B1EB"/>
<path id="Vector_8" fill-rule="evenodd" clip-rule="evenodd" d="M8.09645 8.59784L7.87411 10.7115H9.94257V8.59784H8.09645Z" fill="#00B1EB"/>
<path id="Vector_9" fill-rule="evenodd" clip-rule="evenodd" d="M16.3514 10.9978H14.5994V11.7514H13.9439V12.7762H11.8566V10.9978H11.0767V11.1976C11.0767 12.2072 10.1385 12.7385 9.19289 12.7385H9.09865V11.6383H9.15897C9.59597 11.6383 9.91247 11.4085 9.91247 11.1033V10.9978H7.84025L7.30905 16.0239L12.0977 18.0622L16.8864 16.0239L16.3514 10.9978Z" fill="#005CA9"/>
<path id="Vector_10" d="M11.8566 8.59784H11.0767V10.7115H11.8566V8.59784Z" fill="#00B1EB"/>
<path id="Vector_11" fill-rule="evenodd" clip-rule="evenodd" d="M11.6041 6.90981C11.53 6.90996 11.4568 6.92562 11.389 6.95582C11.3214 6.98586 11.2608 7.02984 11.211 7.08492C11.1614 7.13969 11.1238 7.20442 11.1007 7.27488C11.0775 7.34534 11.0693 7.41994 11.0766 7.49381V8.28877H11.8565V6.90981H11.6041ZM11.6832 8.11545H11.2499V7.49381C11.2453 7.44333 11.2509 7.39242 11.2664 7.34419C11.2818 7.29595 11.3068 7.25139 11.3398 7.21319C11.3729 7.17481 11.4133 7.14354 11.4587 7.12126C11.5041 7.0989 11.5536 7.08595 11.6041 7.08314H11.6832V8.11545Z" fill="black"/>
<path id="Vector_12" d="M10.3457 14.1702C10.3028 14.1677 10.26 14.1782 10.223 14.2004C10.1861 14.2225 10.1567 14.2553 10.1385 14.2945C10.0967 14.3772 10.0759 14.4691 10.0782 14.562H9.91247C9.90192 14.4201 9.94054 14.2789 10.0217 14.1626C10.0594 14.1094 10.11 14.067 10.1686 14.0394C10.2274 14.0116 10.2923 13.9996 10.3571 14.0044C10.47 14.0015 10.5795 14.0434 10.6623 14.1211C10.7056 14.1649 10.7391 14.2175 10.7606 14.2754C10.7821 14.3332 10.7909 14.3949 10.7865 14.4565C10.7938 14.5758 10.7576 14.6937 10.6848 14.788C10.6166 14.8672 10.5395 14.938 10.455 14.999C10.3671 15.0593 10.2842 15.1196 10.2063 15.1798C10.1326 15.2374 10.0829 15.3207 10.067 15.4135H10.7715V15.5793H9.87482C9.87554 15.4319 9.92161 15.2884 10.0066 15.1686C10.0819 15.0801 10.168 15.0016 10.2628 14.935C10.3583 14.8705 10.4467 14.796 10.5267 14.7127C10.587 14.6402 10.618 14.5473 10.6133 14.4527C10.6149 14.4151 10.6087 14.3775 10.595 14.3425C10.5814 14.3075 10.5607 14.2757 10.5341 14.2493C10.5096 14.224 10.4802 14.204 10.4479 14.1904C10.4155 14.1768 10.3808 14.1699 10.3457 14.1702H10.3457Z" fill="white"/>
<path id="Vector_13" d="M11.4722 15.6057C11.3874 15.6134 11.3026 15.5903 11.2332 15.5404C11.1642 15.4908 11.1153 15.4176 11.0955 15.3344C11.0045 14.9862 11.0045 14.6201 11.0955 14.2719C11.1261 14.1931 11.1797 14.1255 11.2491 14.078C11.3189 14.0303 11.4012 14.0048 11.4854 14.0048C11.5697 14.0048 11.652 14.0303 11.7218 14.078C11.7912 14.1255 11.8447 14.1931 11.8754 14.2719C11.9641 14.6204 11.9641 14.9859 11.8754 15.3344C11.8561 15.4232 11.8034 15.501 11.7285 15.5513C11.6531 15.6019 11.5614 15.6214 11.4722 15.6057ZM11.4722 14.1702C11.441 14.1687 11.4097 14.1735 11.3803 14.1843C11.3509 14.1951 11.324 14.2117 11.3011 14.2332C11.2783 14.2546 11.26 14.2803 11.2473 14.309C11.2346 14.3377 11.2278 14.3686 11.2273 14.4C11.1798 14.6679 11.1798 14.9422 11.2273 15.2101C11.2349 15.2704 11.2641 15.3259 11.3095 15.3658C11.3551 15.4061 11.4136 15.4282 11.4742 15.4282C11.5347 15.4282 11.5932 15.4061 11.6388 15.3658C11.6842 15.3259 11.7134 15.2704 11.7209 15.2101C11.7675 14.9421 11.7675 14.668 11.7209 14.4C11.7205 14.3684 11.7136 14.3371 11.7007 14.3082C11.6877 14.2792 11.669 14.2532 11.6458 14.2317C11.6225 14.2102 11.5952 14.1937 11.5654 14.1832C11.5355 14.1725 11.5038 14.1681 11.4722 14.1702Z" fill="white"/>
<path id="Vector_14" d="M12.7457 14.0044V15.5792H12.5573V14.4489H12.2032V14.2982C12.2905 14.2999 12.3771 14.2805 12.4556 14.2418C12.4959 14.217 12.5296 14.1828 12.554 14.1421C12.5782 14.1015 12.5923 14.0555 12.595 14.0082L12.7457 14.0044Z" fill="white"/>
<path id="Vector_15" d="M13.9439 14.0044V15.0442H14.0983V15.21H13.9439V15.5867H13.7931V15.21H13.1903V15.0178L13.812 14.0044L13.9439 14.0044ZM13.3222 15.0442H13.7931V14.268L13.3222 15.0442Z" fill="white"/>
<path id="Vector_16" d="M11.1256 1.81975L11.2575 1.80845L11.3178 2.73153L11.186 2.73908L11.1897 2.77299L11.6079 2.74285L11.6042 2.70894L11.4761 2.72025L11.4158 1.80092L11.5439 1.79336V1.75571L11.1256 1.78584V1.81975Z" fill="#1D1D1B"/>
<path id="Vector_17" d="M15.3681 2.34733L15.5112 2.39255L15.3002 3.02928L15.0516 2.20416L14.7539 2.1062L14.7427 2.14011L14.8632 2.1778L14.5731 3.05185L14.4526 3.01417L14.4412 3.04431L14.7464 3.14603L14.7577 3.11589L14.6108 3.06697L14.8934 2.223L15.2212 3.31939L15.2476 3.32315L15.5527 2.40762L15.6733 2.44529L15.6846 2.41515L15.3794 2.31343L15.3681 2.34733Z" fill="#1D1D1B"/>
<path id="Vector_18" d="M6.72125 3.25141L6.83425 3.18737L7.29391 3.9861L7.18091 4.05015L7.19598 4.0803L7.55767 3.87307L7.54261 3.84293L7.42961 3.90697L6.96991 3.10824L7.08291 3.04419L7.06407 3.01408L6.70242 3.22504L6.72125 3.25141Z" fill="#1D1D1B"/>
<path id="Vector_19" d="M21.012 7.20749L21.0836 7.33931L20.4958 7.66333L20.8726 6.89092L20.7219 6.61217L20.6918 6.631L20.752 6.74026L19.9458 7.18862L19.8855 7.07558L19.8553 7.09069L20.0098 7.3733L20.04 7.35819L19.9646 7.22251L20.7445 6.79302V6.79678L20.2396 7.82159L20.2585 7.84421L21.1024 7.37697L21.1627 7.48626L21.1966 7.47114L21.0421 7.19239L21.012 7.20749Z" fill="#1D1D1B"/>
<path id="Vector_20" d="M18.8681 4.44201L18.9623 4.52489L18.676 4.84515L18.3557 4.55884L18.6421 4.23856L18.7325 4.32145L18.7589 4.29508L18.4499 4.02004L18.4273 4.04637L18.5253 4.13303L17.9111 4.81878L17.8132 4.73212L17.7906 4.75849L18.0995 5.03354L18.1221 5.01093L18.028 4.92427L18.3332 4.58518L18.6534 4.8715L18.3482 5.21438L18.2541 5.12772L18.2315 5.1541L18.5404 5.42913L18.563 5.40277L18.465 5.31611L19.0792 4.6304L19.1771 4.71706L19.1997 4.69445L18.8908 4.41564L18.8681 4.44201Z" fill="#1D1D1B"/>
<path id="Vector_21" d="M3.60161 6.19035L3.6732 6.08485L4.02737 6.32598L3.78624 6.68391L3.43211 6.44278L3.4999 6.34106L3.47352 6.31845L3.23993 6.66131L3.27009 6.68014L3.34168 6.57465L4.10651 7.09081L4.03115 7.19632L4.06129 7.21518L4.29112 6.87608L4.26474 6.85723L4.19315 6.95898L3.81638 6.70275L4.05751 6.34482L4.43428 6.60102L4.36646 6.70651L4.39284 6.72535L4.62643 6.38249L4.59629 6.36366L4.52473 6.47292L3.75987 5.95675L3.83523 5.84749L3.80507 5.82864L3.57525 6.1715L3.60161 6.19035Z" fill="#1D1D1B"/>
<path id="Vector_22" d="M17.3046 3.22134H17.282L16.4983 3.88443L16.4004 3.82414V3.85429L16.6641 4.01252V3.98238L16.5398 3.90703L16.7884 3.69228L17.007 3.8241L16.9279 4.14058L16.8035 4.06523V4.09538L17.1803 4.32521V4.29506L17.071 4.23102L17.3046 3.22134ZM16.8224 3.65084L17.1087 3.40971L17.0183 3.78647L16.8224 3.65084Z" fill="#1D1D1B"/>
<path id="Vector_23" d="M4.23465 5.30488V5.32748L4.75836 6.20909L4.68303 6.29577L4.7094 6.31837L4.90903 6.08478L4.88266 6.06218L4.78849 6.17144L4.61895 5.89263L4.78849 5.69671L5.08614 5.82858L4.99194 5.93784L5.01832 5.96044L5.30844 5.62136L5.27829 5.59875L5.1954 5.69671L4.23465 5.30488ZM4.57751 5.85495L4.38536 5.5347L4.72445 5.68163L4.57751 5.85495Z" fill="#1D1D1B"/>
<path id="Vector_24" d="M5.39508 4.20092L5.50808 4.10296L5.93758 4.58898C6.04684 4.71332 6.0996 4.81128 5.90367 4.98459C5.70774 5.1579 5.65124 5.09386 5.5269 4.96199L5.09363 4.46842L5.19535 4.378L5.17275 4.35162L4.85626 4.63044L4.87886 4.65681L4.97305 4.57392L5.42141 5.07879C5.54574 5.21816 5.6437 5.26717 5.89613 5.04487C6.14856 4.82258 6.09958 4.71332 5.97525 4.57392L5.5382 4.07659L5.62486 4.00123L5.60226 3.97488L5.37243 4.17832L5.39508 4.20092Z" fill="#1D1D1B"/>
<path id="Vector_25" d="M3.01766 7.12464L3.08925 6.98895L3.68078 7.30166L2.82928 7.41472L2.68234 7.69356L2.71249 7.71234L2.77277 7.59557L3.59036 8.02134L3.53008 8.13433L3.56022 8.15318L3.71092 7.86677L3.67701 7.85176L3.60921 7.98741L2.81798 7.57672L2.82175 7.57295L3.95582 7.42602L3.96335 7.39962L3.10809 6.95508L3.16459 6.84203L3.13446 6.82697L2.98753 7.10956L3.01766 7.12464Z" fill="#1D1D1B"/>
<path id="Vector_26" d="M6.31065 3.50381L6.43501 3.42093L6.81555 3.97101L6.00923 3.67336L5.74927 3.8542L5.7681 3.88435L5.86984 3.80899L6.39731 4.56633L6.29179 4.63792L6.31439 4.66806L6.57813 4.48344L6.55552 4.45707L6.43121 4.54369L5.92257 3.81276H5.92635L7.00012 4.20836L7.01898 4.18951L6.46888 3.39832L6.57061 3.32297L6.55177 3.2966L6.2918 3.47745L6.31065 3.50381Z" fill="#1D1D1B"/>
<path id="Vector_27" d="M2.49394 8.27749L2.54297 8.15695L3.39446 8.50729L3.34548 8.62789L3.37561 8.643L3.53386 8.25495L3.50372 8.24364L3.45474 8.36417L2.60322 8.01002L2.6522 7.88942L2.62206 7.87811L2.46005 8.26247L2.49394 8.27749Z" fill="#1D1D1B"/>
<path id="Vector_28" d="M7.77999 2.68638L7.91188 2.6261L7.99853 3.38717L7.47854 2.82955L7.60671 2.76926L7.59158 2.73912L7.21109 2.9162L7.22615 2.95012L7.32785 2.90113L8.03618 3.63959L8.06257 3.62829L7.95327 2.60349L8.04751 2.55827L8.03245 2.52813L7.76866 2.65623L7.77999 2.68638Z" fill="#1D1D1B"/>
<path id="Vector_29" d="M9.01953 3.19502L8.81986 3.26284L8.66917 2.84086L8.74075 2.81826C8.89144 2.7655 8.91403 2.81826 8.97434 2.96896H9.012L8.85751 2.5206H8.81986C8.86888 2.65998 8.88017 2.72029 8.72568 2.77303L8.66918 2.79941L8.52601 2.39627L8.59006 2.37367C8.88771 2.26818 8.94422 2.27571 9.06478 2.49423H9.09864L8.98941 2.21166L8.2359 2.47163V2.50554L8.36019 2.4641L8.66917 3.31555L8.54481 3.35703V3.39094L9.33224 3.1159L9.23054 2.79188H9.19661C9.2494 3.01417 9.2192 3.1272 9.01953 3.19502Z" fill="#1D1D1B"/>
<path id="Vector_30" d="M19.6481 6.72908L19.5276 6.55576L19.9043 6.29953L19.9457 6.35981C20.0399 6.49168 20.006 6.52558 19.8628 6.62731L19.8854 6.66123L20.2622 6.38996L20.2396 6.35605C20.1153 6.44271 20.0625 6.46908 19.9683 6.33721L19.9269 6.27692L20.2773 6.03203L20.315 6.08477C20.4959 6.34474 20.5071 6.40125 20.315 6.57457L20.3339 6.60471L20.5787 6.42386L20.1229 5.77206L20.0965 5.7909L20.1718 5.8964L19.4183 6.42386L19.3429 6.31837L19.3166 6.33721L19.7951 7.01915L20.0777 6.83454L20.055 6.8044C19.8968 6.89862 19.7724 6.90239 19.6481 6.72908Z" fill="#1D1D1B"/>
<path id="Vector_31" d="M10.1423 2.66367C10.0821 2.45272 10.0142 2.44142 9.80699 2.46403C9.93136 2.41881 10.0217 2.34723 9.98407 2.19275C9.94641 2.03828 9.81079 1.9893 9.63744 2.03074L9.26068 2.12493V2.15884L9.38878 2.1287L9.58845 3.0141L9.46035 3.04424V3.07815L9.86354 2.98396V2.95005L9.74298 2.97642L9.63744 2.5243L9.72408 2.50546C9.89743 2.46402 9.93888 2.50546 9.99163 2.69008C10.0444 2.8747 10.0745 2.93874 10.2403 2.90107L10.3383 2.87847V2.84455H10.3043C10.2101 2.8747 10.1762 2.80687 10.1423 2.66367ZM9.62617 2.48663L9.53193 2.08349H9.60351C9.74294 2.04959 9.80326 2.11364 9.83338 2.24174C9.8635 2.36984 9.83338 2.45273 9.72038 2.48287L9.62617 2.48663Z" fill="#1D1D1B"/>
<path id="Vector_32" d="M10.4701 2.05343C10.4701 2.00901 10.4875 1.96639 10.5184 1.93486C10.5495 1.9031 10.5917 1.88482 10.6359 1.88389C10.764 1.88389 10.8544 1.9291 10.9071 2.08357H10.9448L10.9071 1.8688C10.8231 1.84245 10.7347 1.83348 10.6472 1.84244C10.6083 1.84379 10.57 1.8531 10.5347 1.86981C10.4996 1.88637 10.4682 1.91002 10.4424 1.9393C10.4167 1.96858 10.3971 2.00288 10.3849 2.04008C10.3729 2.07713 10.3686 2.11628 10.3722 2.15511C10.4173 2.49424 10.9373 2.32846 10.9712 2.5922C10.9712 2.72407 10.8845 2.79942 10.7715 2.81449C10.6948 2.82011 10.6188 2.79644 10.5585 2.74816C10.4985 2.70017 10.4588 2.63095 10.4475 2.55452H10.4098L10.455 2.82956C10.5526 2.85942 10.6555 2.86714 10.7564 2.85216C10.7987 2.84981 10.8402 2.83903 10.8784 2.82044C10.9166 2.80186 10.9508 2.77583 10.979 2.74385C11.007 2.71208 11.0284 2.67494 11.042 2.63466C11.0555 2.59437 11.0609 2.55174 11.0579 2.50929C11.0126 2.12877 10.5002 2.29832 10.4701 2.05343Z" fill="#1D1D1B"/>
<path id="Vector_33" d="M17.7756 3.76761C17.7902 3.7492 17.8085 3.73403 17.8292 3.72303C17.8498 3.71204 17.8726 3.70545 17.8959 3.70368C17.9192 3.70192 17.9426 3.70501 17.9647 3.71276C17.9868 3.72052 18.0071 3.73278 18.0243 3.74877C18.0742 3.78603 18.1079 3.84131 18.1184 3.90309C18.1289 3.96486 18.1155 4.02835 18.0808 4.08032L18.1109 4.10293L18.2315 3.92209C18.189 3.84453 18.1313 3.77658 18.0619 3.7224C18.0326 3.69657 17.9984 3.677 17.9615 3.66487C17.9245 3.65274 17.8854 3.6483 17.8467 3.65182C17.808 3.65534 17.7704 3.66675 17.7361 3.68535C17.7019 3.70396 17.6717 3.72937 17.6474 3.76007C17.4441 4.03514 17.9338 4.27625 17.7794 4.49101C17.7616 4.51273 17.7396 4.53051 17.7148 4.54327C17.6772 4.56256 17.6347 4.56971 17.593 4.56373C17.5513 4.55774 17.5124 4.53893 17.4817 4.50984C17.4217 4.462 17.3822 4.39254 17.3717 4.31599C17.3612 4.23945 17.3803 4.16176 17.4252 4.09917L17.3951 4.07657L17.2368 4.30638C17.2868 4.39634 17.3564 4.47364 17.4403 4.53244C17.506 4.5878 17.5906 4.61486 17.6758 4.60782C17.7611 4.60077 17.8402 4.56018 17.8961 4.49477C18.1147 4.19336 17.6287 3.96353 17.7756 3.76761Z" fill="#1D1D1B"/>
<path id="Vector_34" d="M14.1511 2.01189L14.2792 2.04203L14.0644 2.93873L13.9401 2.90859L13.9325 2.94249L14.3395 3.03669L14.347 3.00278L14.219 2.97263L14.4299 2.07592L14.5581 2.10606L14.5656 2.07592L14.1586 1.97797L14.1511 2.01189Z" fill="#1D1D1B"/>
<path id="Vector_35" d="M11.6833 2.06096H11.7247C11.7247 1.93286 11.785 1.78592 11.9281 1.78969H12.06V2.70146H11.9094V2.73538H12.3727V2.70899H12.2183V1.79722H12.3388C12.4782 1.79722 12.531 1.94416 12.5348 2.07226H12.5762V1.75578L11.6833 1.74447V2.06096Z" fill="#1D1D1B"/>
<path id="Vector_36" d="M15.937 2.87098H15.9746C16.0349 2.75795 16.148 2.64869 16.2761 2.71274L16.3853 2.76549L15.9859 3.60193L15.8465 3.53411V3.56425L16.261 3.7677V3.73755L16.1253 3.66975L16.5247 2.84839L16.6302 2.90114C16.7583 2.96142 16.7432 3.1159 16.6905 3.23646H16.7282L16.8675 2.95015L16.0764 2.57336L15.937 2.87098Z" fill="#1D1D1B"/>
<path id="Vector_37" d="M20.9592 7.70486V7.74257C21.0798 7.69732 21.2343 7.68978 21.2908 7.82169L21.336 7.93091L20.5147 8.28887L20.4544 8.14949H20.4242L20.6051 8.57518H20.6352L20.575 8.43581L21.4151 8.07784L21.4603 8.18713C21.5168 8.31904 21.4038 8.42448 21.287 8.48104V8.51869L21.5771 8.39442L21.2343 7.58434L20.9592 7.70486Z" fill="#1D1D1B"/>
<path id="Vector_38" d="M13.326 1.83489L13.3222 1.8688L13.4616 1.88388L13.2092 2.2644L13.0396 1.83489L13.1828 1.85374L13.1866 1.81983L12.7495 1.76707L12.7458 1.80098L12.8588 1.81605L13.0622 2.29831L13.0095 2.76174L12.8814 2.7429L12.8738 2.78058L13.292 2.82579V2.79188L13.1677 2.77681L13.2205 2.31338L13.5068 1.89141L13.6123 1.90272L13.616 1.8688L13.326 1.83489Z" fill="#1D1D1B"/>
<path id="Vector_39" d="M18.7627 5.61765L19.4522 5.0148L19.3655 4.898L19.3919 4.87539L19.6745 5.19564L19.6481 5.21824L19.5615 5.12032L18.8719 5.72692L18.9587 5.82488L18.9285 5.85124L18.646 5.53099L18.6723 5.50462L18.7627 5.61765ZM19.7724 5.32378L19.9458 5.5197L19.9156 5.5423L19.8516 5.47072H19.3957L19.2412 6.16397L19.2864 6.21672L19.2563 6.24308L19.0152 5.96805L19.0453 5.94165L19.1018 6.0057L19.2412 5.42925H19.8214L19.7461 5.3426L19.7724 5.32378Z" fill="#1D1D1B"/>
<path id="Vector_40" d="M12.7232 21.2081L12.8513 21.1968L12.9454 22.1048L12.8173 22.12L12.8211 22.1538L13.2318 22.1124L13.228 22.0785L13.0999 22.0897L13.0095 21.1817L13.1376 21.1704L13.1338 21.1328L12.7194 21.1742L12.7232 21.2081Z" fill="#1D1D1B"/>
<path id="Vector_41" d="M18.8758 18.1751L18.9587 18.0772L19.6519 18.6762L19.5652 18.7742L19.5916 18.793L19.8629 18.4803L19.8365 18.4577L19.7536 18.5556L19.0604 17.9604L19.1433 17.8624L19.1206 17.8398L18.8494 18.1563L18.8758 18.1751Z" fill="#1D1D1B"/>
<path id="Vector_42" d="M20.9027 14.4979L20.9366 14.3736L21.822 14.5996L21.7881 14.7239L21.822 14.7352L21.9237 14.3321L21.8898 14.3245L21.8596 14.4489L20.9742 14.2229L21.0082 14.0948L20.9742 14.0872L20.8688 14.4904L20.9027 14.4979Z" fill="#1D1D1B"/>
<path id="Vector_43" d="M14.8218 20.7899L14.9611 20.7447L15.1533 21.3852H15.1495L14.4827 20.854L14.1812 20.9444L14.1926 20.9783L14.3131 20.9406L14.5731 21.8147L14.4525 21.8523L14.4638 21.8863L14.769 21.7921L14.7577 21.7619L14.6146 21.8034L14.3621 20.9595H14.3658L15.255 21.6641L15.2776 21.6527L15.0026 20.7334L15.1231 20.6995L15.1118 20.6656L14.8104 20.756L14.8218 20.7899Z" fill="#1D1D1B"/>
<path id="Vector_44" d="M6.17875 19.1736L6.27296 19.2527L6.00167 19.5842L5.67389 19.3092L5.94517 18.9814L6.03936 19.0605L6.06197 19.0342L5.74547 18.7742L5.72663 18.8006L5.82458 18.8835L5.2406 19.588L5.14263 19.5051L5.12003 19.5315L5.4365 19.7914L5.45911 19.7651L5.36115 19.686L5.65127 19.3356L5.98279 19.6069L5.69272 19.9572L5.59476 19.8781L5.57592 19.9045L5.88864 20.1644L5.91124 20.138L5.81328 20.059L6.3935 19.3544L6.49523 19.4373L6.51408 19.4109L6.20135 19.1471L6.17875 19.1736Z" fill="#1D1D1B"/>
<path id="Vector_45" d="M2.98752 14.0759L3.01389 14.1965L2.59945 14.2869L2.50902 13.8725L2.92347 13.7782L2.94984 13.9025L2.98375 13.895L2.89333 13.4956L2.85942 13.5032L2.88956 13.6276L1.99659 13.8234L1.97025 13.6991L1.93634 13.7067L2.023 14.1061L2.05691 14.0985L2.03053 13.9779L2.47512 13.88L2.56554 14.2944L2.12472 14.3923L2.09835 14.2718L2.06444 14.2794L2.15113 14.6787L2.18504 14.6712L2.15861 14.5468L3.04778 14.3509L3.07792 14.4752L3.11183 14.4676L3.02143 14.0683L2.98752 14.0759Z" fill="#1D1D1B"/>
<path id="Vector_46" d="M11.2576 21.1629H11.2312L10.828 22.0973H10.7112V22.1311L11.0164 22.1575V22.1237H10.8732L10.9976 21.8222L11.2538 21.8449L11.3216 22.1613H11.1784V22.1953L11.6192 22.2329V22.1991H11.4911L11.2576 21.1629ZM11.0164 21.7582L11.1633 21.4191L11.2424 21.7959L11.0164 21.7582Z" fill="#1D1D1B"/>
<path id="Vector_47" d="M6.95488 19.6898H6.93229L6.13353 20.319L6.0318 20.2398V20.2699L6.288 20.4395V20.4094L6.17121 20.3453L6.42364 20.1419L6.6384 20.2812L6.54797 20.5902L6.42743 20.5111V20.5412L6.80419 20.7862L6.78533 20.7221L6.67981 20.6543L6.95488 19.6898ZM6.46133 20.0966L6.75142 19.8706L6.6497 20.2247L6.46133 20.0966Z" fill="#1D1D1B"/>
<path id="Vector_48" d="M16.5812 19.9686H16.5586L16.7545 20.9671L16.6528 21.0236V21.0537L16.9204 20.903V20.8729L16.796 20.9445L16.7319 20.628L16.9542 20.5036L17.1878 20.7259L17.0635 20.7975V20.8276L17.4402 20.6091V20.579L17.331 20.6431L16.5812 19.9686ZM16.7168 20.594L16.6453 20.2173L16.9128 20.4697L16.7168 20.594Z" fill="#1D1D1B"/>
<path id="Vector_49" d="M4.21578 16.9733L4.29491 17.1013L3.72976 17.448H3.72598L4.06885 16.6643L3.90307 16.3968L3.87293 16.4156L3.94075 16.5211L3.16084 17.0034L3.09679 16.8941L3.06665 16.9129L3.23243 17.1842L3.26256 17.1654L3.18345 17.0373L3.93321 16.5739L3.93698 16.5776L3.4811 17.6175L3.5037 17.6363L4.31752 17.1353L4.38533 17.2445L4.41171 17.2257L4.24593 16.9544L4.21578 16.9733Z" fill="#1D1D1B"/>
<path id="Vector_50" d="M20.8312 17.011L20.7257 17.1917L20.3489 16.9544L20.3866 16.8904C20.4657 16.751 20.5109 16.7698 20.6578 16.8527L20.6767 16.8188L20.2698 16.5776L20.2471 16.6116C20.3753 16.6869 20.4205 16.7246 20.3414 16.864L20.3037 16.9281L19.9269 16.7133L19.9608 16.6568C20.119 16.3855 20.1643 16.3553 20.3978 16.4383V16.4081L20.1341 16.2649L19.7574 16.9469H19.7875L19.8516 16.8339L20.6503 17.3312L20.5862 17.4442H20.6164L21.0308 16.7284L20.7445 16.5776H20.7257C20.8802 16.717 20.9367 16.8301 20.8312 17.011Z" fill="#1D1D1B"/>
<path id="Vector_51" d="M5.19157 18.4616C5.20869 18.4462 5.22871 18.4344 5.25043 18.427C5.27215 18.4196 5.29513 18.4167 5.31799 18.4184C5.34085 18.4202 5.36313 18.4266 5.38348 18.4372C5.40384 18.4479 5.42187 18.4626 5.43648 18.4804C5.47995 18.5252 5.5043 18.5854 5.5043 18.6481C5.5043 18.7108 5.47995 18.771 5.43648 18.8158L5.46285 18.8421L5.60978 18.6839C5.57954 18.6014 5.53344 18.5259 5.47415 18.4616C5.44765 18.4342 5.41601 18.4124 5.38107 18.3975C5.34613 18.3827 5.3086 18.375 5.27069 18.375C5.23278 18.375 5.19526 18.3827 5.16032 18.3975C5.12538 18.4124 5.09373 18.4342 5.06724 18.4616C4.82611 18.7027 5.27069 19.0116 5.06724 19.2151C5.0467 19.2339 5.02253 19.2482 4.99626 19.2571C4.96999 19.266 4.94218 19.2693 4.91458 19.2669C4.88698 19.2644 4.86019 19.2562 4.83588 19.2427C4.81158 19.2292 4.79029 19.2109 4.77336 19.1887C4.7215 19.1332 4.69261 19.0597 4.69261 18.9834C4.69261 18.907 4.7215 18.8335 4.77336 18.778L4.74699 18.7516L4.55484 18.9551C4.59055 19.0508 4.64722 19.1371 4.72062 19.2076C4.77642 19.2722 4.85517 19.312 4.9398 19.3183C5.02443 19.3247 5.10812 19.297 5.17274 19.2414C5.45908 18.9514 5.01827 18.65 5.19157 18.4616Z" fill="#1D1D1B"/>
<path id="Vector_52" d="M7.9005 20.2775L8.0135 20.334L7.82139 20.7146L7.43711 20.5224L7.63305 20.1419L7.74229 20.1984L7.75735 20.1682L7.39192 19.9837L7.37686 20.0138L7.49362 20.0703L7.07922 20.8879L6.96622 20.8276L6.94736 20.8578L7.31285 21.0424L7.32791 21.0122L7.21861 20.9595L7.42578 20.5526L7.80633 20.7447L7.59913 21.1516L7.48989 21.0951L7.47476 21.1253L7.84024 21.3099L7.8553 21.2798L7.73853 21.2194L8.15296 20.4056L8.26596 20.4622L8.28103 20.432L7.9156 20.2474L7.9005 20.2775Z" fill="#1D1D1B"/>
<path id="Vector_53" d="M15.7298 20.4508L15.8428 20.4019L16.0123 20.7937L15.6205 20.9595L15.4509 20.5714L15.5639 20.5224L15.5527 20.4885L15.1759 20.6506L15.1872 20.6807L15.3078 20.6317L15.6695 21.4719L15.5489 21.5209L15.564 21.5548L15.9407 21.3928L15.9257 21.3626L15.8126 21.4116L15.6318 20.9934L16.0237 20.8238L16.2045 21.2421L16.0915 21.291L16.1028 21.3212L16.4795 21.1591L16.4682 21.129L16.3477 21.1818L15.986 20.3416L16.1065 20.2888L16.0915 20.2587L15.7146 20.4207L15.7298 20.4508Z" fill="#1D1D1B"/>
<path id="Vector_54" d="M20.8311 15.1723C20.8097 15.1638 20.7902 15.151 20.7739 15.1346C20.7576 15.1182 20.7447 15.0986 20.7362 15.077C20.7277 15.0555 20.7238 15.0324 20.7245 15.0093C20.7253 14.9861 20.7308 14.9634 20.7407 14.9425C20.7821 14.8219 20.88 14.7692 21.0383 14.788V14.7541L20.8424 14.6938C20.7816 14.7577 20.7342 14.8333 20.703 14.9161C20.6801 14.9689 20.6738 15.0275 20.685 15.084C20.6962 15.1405 20.7243 15.1922 20.7656 15.2319C20.7931 15.2585 20.8256 15.2793 20.8613 15.2928C21.1815 15.4021 21.2644 14.8671 21.5131 14.95C21.5391 14.9597 21.5628 14.9748 21.5827 14.9943C21.6026 15.0138 21.6183 15.0373 21.6287 15.0633C21.6389 15.0892 21.6437 15.117 21.6426 15.1448C21.6415 15.1727 21.6346 15.2 21.6223 15.225C21.5934 15.2969 21.5384 15.3548 21.4685 15.3868C21.3983 15.4191 21.3186 15.4232 21.2455 15.3984V15.4323L21.5131 15.5114C21.5835 15.4378 21.6363 15.3488 21.6676 15.2515C21.682 15.2121 21.6887 15.1703 21.687 15.1284C21.6854 15.0865 21.6756 15.0453 21.6581 15.0072C21.6226 14.93 21.5582 14.8702 21.4792 14.8408C21.1363 14.7239 21.0647 15.2515 20.8311 15.1723Z" fill="#1D1D1B"/>
<path id="Vector_55" d="M21.3096 14.0609V14.0195C21.1853 13.9931 21.0497 13.914 21.076 13.7746L21.0949 13.6578L21.984 13.816L21.9577 13.963H21.9915L22.0707 13.5109H22.0368L22.0104 13.6616L21.1213 13.5033L21.1401 13.3866C21.1626 13.2471 21.3134 13.2208 21.4415 13.2359L21.4792 13.1869L21.1702 13.1341L21.0195 13.9931L21.3096 14.0609Z" fill="#1D1D1B"/>
<path id="Vector_56" d="M21.5357 12.2185V12.1771C21.4076 12.1771 21.2644 12.1243 21.2607 11.9849V11.8681L22.1649 11.8493V12H22.1989V11.5403H22.1649V11.6797L21.2606 11.6986V11.5817C21.2606 11.4424 21.4 11.3859 21.5282 11.3745V11.3331H21.2155V12.2072L21.5357 12.2185Z" fill="#1D1D1B"/>
<path id="Vector_57" d="M17.8509 19.1435L17.9678 19.0531L18.3634 19.5579C18.4651 19.686 18.5103 19.7877 18.3069 19.9347C18.1035 20.0816 18.0506 20.0289 17.9301 19.8895L17.527 19.3771L17.6324 19.2942L17.6098 19.2678L17.282 19.5278L17.3046 19.5542L17.4026 19.475L17.817 20.0025C17.93 20.1457 18.028 20.1984 18.288 20.0025C18.548 19.8065 18.5103 19.686 18.3935 19.5391L17.9904 19.0229L18.0808 18.9513L18.0883 18.9325L17.8472 19.1209L17.8509 19.1435Z" fill="#1D1D1B"/>
<path id="Vector_58" d="M18.5819 18.4765L18.6874 18.371L19.1508 18.8458V18.8495L18.3143 18.6913L18.0883 18.9098L18.1109 18.9362L18.2013 18.8458L18.8419 19.5013L18.7514 19.588L18.774 19.6105L19.0001 19.3883L18.9775 19.3656L18.872 19.4712L18.2541 18.842V18.8382L19.3731 19.0492L19.3844 19.0266L18.7175 18.3446L18.8079 18.2542L18.7815 18.2316L18.5555 18.4539L18.5819 18.4765Z" fill="#1D1D1B"/>
<path id="Vector_59" d="M21.223 11.2616L21.208 11.1297L22.1197 11.0393L22.131 11.1674L22.1649 11.1636L22.1235 10.7529L22.0896 10.7567L22.1009 10.8849L21.1928 10.9753L21.1816 10.8471L21.1476 10.8509L21.1891 11.2615L21.223 11.2616Z" fill="#1D1D1B"/>
<path id="Vector_60" d="M19.5803 17.2709L19.6632 17.1579L20.1077 17.7796H20.104L19.3844 17.5422L19.4673 17.4292L19.4409 17.4103L19.196 17.7456L19.2261 17.7683L19.2902 17.6741L20.2585 17.9792L20.2773 17.9567L19.6933 17.1202L19.7498 17.0373L19.7234 17.0185L19.5539 17.2521L19.5803 17.2709Z" fill="#1D1D1B"/>
<path id="Vector_61" d="M22.1385 12.6595V12.8667L21.6939 12.8327V12.7574C21.6939 12.5992 21.7504 12.5916 21.9237 12.6029V12.5615L21.4565 12.5276V12.5691C21.6034 12.5691 21.6638 12.5954 21.6524 12.7536V12.829L21.2154 12.8102V12.7461C21.238 12.4334 21.2644 12.3693 21.513 12.3693V12.3317H21.2116L21.1551 13.1153H21.189V12.9873L22.1009 13.0551V13.1831H22.1347L22.195 12.358L21.8597 12.3204V12.358C22.0556 12.3731 22.1574 12.4334 22.1385 12.6595Z" fill="#1D1D1B"/>
<path id="Vector_62" d="M2.87072 16.4233L2.7803 16.2348L3.18343 16.0427L3.21361 16.1105C3.28143 16.2537 3.24375 16.2838 3.08928 16.3592V16.3969L3.5301 16.2009V16.1633C3.39442 16.2273 3.33791 16.2424 3.27011 16.0992L3.23621 16.0314L3.61297 15.8468L3.64312 15.9071C3.77875 16.1896 3.77875 16.2462 3.57906 16.3893V16.4233L3.84661 16.2876L3.50745 15.5793H3.47731L3.53381 15.696L2.70871 16.0728L2.64089 15.9786H2.61075L2.96868 16.7322L3.27759 16.6003V16.5664C3.08547 16.6304 2.96114 16.6116 2.87072 16.4233Z" fill="#1D1D1B"/>
<path id="Vector_63" d="M21.223 15.7187C21.0195 15.6433 20.9705 15.6885 20.8462 15.8656C20.8839 15.7375 20.8839 15.6245 20.7369 15.5642C20.59 15.5039 20.4694 15.5642 20.4016 15.7413L20.2396 16.118H20.2697L20.3225 16.0012L21.1589 16.378L21.1061 16.4947H21.1363L21.3021 16.118H21.272L21.2229 16.2311L20.8009 16.0464L20.8349 15.9673C20.9064 15.8053 20.9705 15.8015 21.14 15.8656C21.3096 15.9296 21.385 15.9485 21.4527 15.794L21.4942 15.7036H21.4641V15.7337C21.4302 15.7902 21.3586 15.7714 21.223 15.7187ZM20.7746 16.0238L20.3978 15.858L20.4279 15.794C20.4844 15.6659 20.5712 15.6546 20.6879 15.7036C20.8047 15.7525 20.8613 15.8242 20.8123 15.9334L20.7746 16.0238Z" fill="#1D1D1B"/>
<path id="Vector_64" d="M8.86884 21.4305C8.93289 21.2232 8.86884 21.1781 8.69929 21.0839C8.82739 21.114 8.94042 21.1027 8.99313 20.9557C9.04585 20.8087 8.95921 20.6921 8.79346 20.6317L8.41671 20.4923V20.5225L8.53727 20.5677L8.22457 21.4267L8.104 21.3815V21.4154L8.48076 21.5548V21.5246L8.36393 21.4757L8.52221 21.0424L8.60505 21.0726C8.77087 21.1329 8.7784 21.2007 8.72561 21.3702C8.67283 21.5398 8.66157 21.6227 8.81985 21.6792L8.91403 21.7131V21.6792H8.8801C8.81233 21.6415 8.82737 21.5699 8.86884 21.4305ZM8.53727 21.001L8.67669 20.6242L8.74448 20.6506C8.87637 20.6996 8.89517 20.7862 8.85 20.9068C8.80483 21.0274 8.74076 21.0876 8.62773 21.0462L8.53727 21.001Z" fill="#1D1D1B"/>
<path id="Vector_65" d="M2.6409 12.9305C2.66387 12.9284 2.68703 12.9311 2.70892 12.9385C2.7308 12.9459 2.75092 12.9578 2.76802 12.9734C2.78502 12.9889 2.79858 13.0079 2.80785 13.0291C2.81711 13.0502 2.82186 13.0731 2.82178 13.0963C2.82178 13.2244 2.77276 13.3111 2.6221 13.3638V13.4014L2.83309 13.3676C2.85923 13.2836 2.8682 13.1952 2.85946 13.1076C2.85859 13.0688 2.84974 13.0305 2.83347 12.9954C2.81714 12.9601 2.79378 12.9286 2.76485 12.9028C2.73574 12.8769 2.70171 12.8574 2.66485 12.8453C2.62798 12.8332 2.58907 12.8289 2.55048 12.8325C2.21515 12.874 2.3734 13.3902 2.10966 13.4241C1.97779 13.4241 1.9062 13.3336 1.8949 13.2206C1.88851 13.1439 1.91201 13.0677 1.96041 13.0082C2.00911 12.9483 2.07873 12.9097 2.15484 12.9004V12.8627L1.88729 12.9079C1.85595 13.005 1.84695 13.1081 1.86099 13.2093C1.86296 13.2518 1.87332 13.2935 1.89147 13.3319C1.90962 13.3703 1.93519 13.4046 1.96668 13.4328C1.99837 13.4613 2.03529 13.4831 2.07534 13.4971C2.11539 13.5111 2.15778 13.517 2.20008 13.5145C2.56178 13.4693 2.39977 12.9607 2.6409 12.9305Z" fill="#1D1D1B"/>
<path id="Vector_66" d="M13.6839 21.0839L13.812 21.0575L13.9966 21.9504L13.8723 21.9768L13.8798 22.0107L14.283 21.9278L14.2754 21.8939L14.1511 21.9203L13.9626 21.0236L14.0908 20.9972L14.0832 20.9671L13.6763 21.05L13.6839 21.0839Z" fill="#1D1D1B"/>
<path id="Vector_67" d="M9.35866 20.8577L9.48302 20.8916L9.24189 21.7732L9.11373 21.7393L9.1062 21.7694L9.50562 21.8787L9.51688 21.8485L9.38879 21.8109L9.62992 20.9331L9.75801 20.9669L9.76554 20.9331L9.36619 20.8238L9.35866 20.8577Z" fill="#1D1D1B"/>
<path id="Vector_68" d="M4.17056 17.4367L4.19694 17.4707C4.30246 17.3952 4.44937 17.3501 4.53602 17.4707L4.60761 17.5648L3.88418 18.1036L3.7938 17.983L3.76743 18.0056L4.0462 18.3824L4.07258 18.3636L3.98218 18.243L4.70177 17.6929L4.77339 17.7871C4.86004 17.9001 4.77339 18.0283 4.6792 18.1111L4.70557 18.145L4.95424 17.9529L4.42299 17.2596L4.17056 17.4367Z" fill="#1D1D1B"/>
<path id="Vector_69" d="M2.51654 10.817V10.8585C2.64464 10.8585 2.78408 10.9376 2.77274 11.077V11.1938L1.8723 11.1223V10.9716H1.8384L1.80072 11.4274H1.83463V11.2767L2.7351 11.3483V11.4651C2.7351 11.6045 2.57685 11.6459 2.44876 11.6422V11.6799L2.76147 11.7025L2.82929 10.8321L2.51654 10.817Z" fill="#1D1D1B"/>
<path id="Vector_70" d="M2.30931 15.0705L3.16456 14.7691L3.12316 14.6486H3.15707L3.29647 15.048H3.26257L3.22112 14.9274L2.36209 15.2288L2.40354 15.3494H2.36963L2.23022 14.95H2.26413L2.30931 15.0705ZM3.34922 15.1723L3.43587 15.4172H3.40192L3.37179 15.3305L2.94985 15.161L2.55047 15.7412L2.57308 15.809H2.53917L2.41861 15.4662H2.45252L2.48266 15.5491L2.82175 15.0705L3.35298 15.2891L3.31531 15.1836L3.34922 15.1723Z" fill="#1D1D1B"/>
<path id="Vector_71" d="M2.7916 12.2487C2.78901 12.1867 2.77354 12.126 2.74618 12.0705C2.71868 12.0149 2.67996 11.9656 2.63251 11.926C2.58479 11.8862 2.52942 11.8568 2.4699 11.8398C2.41038 11.8227 2.348 11.8182 2.2867 11.8267C2.22626 11.8228 2.16567 11.8316 2.10874 11.8525C2.05181 11.8734 1.99977 11.9059 1.95588 11.9481C1.91228 11.99 1.87787 12.0407 1.85487 12.0969C1.83187 12.1531 1.8208 12.2135 1.82238 12.2743C1.82396 12.3351 1.83815 12.3948 1.86403 12.4497C1.88991 12.5046 1.92691 12.5534 1.97262 12.5929C2.01863 12.6328 2.07228 12.6626 2.13022 12.6805C2.18816 12.6984 2.24913 12.7041 2.30932 12.6971C2.37102 12.7023 2.43312 12.6946 2.49172 12.6744C2.55031 12.6542 2.60412 12.622 2.64975 12.5797C2.69508 12.5375 2.73117 12.4863 2.75568 12.4292C2.7801 12.3722 2.79234 12.3107 2.7916 12.2487ZM2.03807 12.5011C2.00758 12.4995 1.97793 12.4904 1.95168 12.4747C1.92543 12.4589 1.90335 12.4369 1.88736 12.4107C1.86306 12.3681 1.84887 12.3204 1.84591 12.2713C1.84051 12.2411 1.8414 12.21 1.84854 12.1802C1.85567 12.1504 1.8689 12.1223 1.88736 12.098C1.92796 12.0595 1.97924 12.0345 2.03429 12.0264C2.1104 12.0149 2.18718 12.0086 2.26412 12.0075C2.3655 11.9956 2.46791 11.9956 2.5693 12.0075C2.5947 12.0117 2.61895 12.0212 2.64042 12.0356C2.66182 12.0498 2.67996 12.0685 2.6936 12.0904C2.71815 12.1341 2.73113 12.1834 2.73127 12.2336C2.73402 12.282 2.72359 12.3302 2.70114 12.373C2.67863 12.4156 2.64089 12.448 2.59561 12.4634C2.50728 12.4879 2.41591 12.4993 2.32434 12.4973C2.22542 12.5072 2.12583 12.5085 2.02669 12.5011L2.03807 12.5011Z" fill="#1D1D1B"/>
<path id="Vector_72" d="M9.87102 21.924L10.033 21.0386L9.90874 21.0159V20.9782L10.3232 21.0536C10.4072 21.0663 10.4879 21.0958 10.5606 21.1402C10.6277 21.1893 10.6767 21.2596 10.6999 21.34C10.7306 21.4309 10.7371 21.5283 10.7188 21.6226C10.7026 21.7194 10.6594 21.8095 10.5944 21.8825C10.5411 21.9459 10.4703 21.9918 10.391 22.0144C10.3101 22.0306 10.2269 22.0306 10.1461 22.0144L9.73538 21.939V21.9013L9.87102 21.924ZM10.1951 21.0649L10.0368 21.9541L10.1574 21.9767C10.2087 21.9832 10.2605 21.9832 10.3118 21.9767C10.3554 21.9708 10.3954 21.9494 10.4248 21.9164C10.4613 21.8752 10.4884 21.8263 10.504 21.7733C10.5285 21.6956 10.5474 21.6163 10.5605 21.5359C10.5799 21.4453 10.5799 21.3515 10.5605 21.2608C10.5495 21.2082 10.5183 21.1622 10.4738 21.1327C10.4227 21.108 10.368 21.0915 10.3118 21.0837L10.1951 21.0649Z" fill="#1D1D1B"/>
<path id="Vector_73" d="M12.4858 21.4757H12.4368C12.4289 21.4395 12.4175 21.4041 12.4029 21.3702C12.3858 21.3191 12.3527 21.275 12.3086 21.2446C12.2644 21.214 12.2116 21.1986 12.158 21.2006C12.1286 21.1986 12.0992 21.2026 12.0713 21.2123C12.0435 21.222 12.0179 21.2372 11.996 21.2571C11.9615 21.2943 11.9403 21.342 11.9357 21.3928C11.9306 21.4693 11.9306 21.5461 11.9357 21.6226C11.934 21.741 11.9415 21.8595 11.9583 21.9767C11.9664 22.0266 11.9918 22.072 12.0299 22.1048C12.0675 22.1342 12.1143 22.1489 12.1617 22.1463C12.1989 22.1456 12.2352 22.1352 12.2673 22.1162C12.2818 22.1078 12.2944 22.0964 12.3042 22.0828C12.3139 22.0691 12.3206 22.0535 12.3238 22.037C12.3293 21.9857 12.3293 21.9339 12.3238 21.8825V21.8524H12.1882V21.8147H12.6252V21.8524H12.5122C12.5182 21.9032 12.5113 21.9546 12.4922 22.002C12.473 22.0495 12.4423 22.0913 12.4029 22.1237C12.3346 22.1769 12.2517 22.2072 12.1655 22.2104C12.1069 22.2114 12.0488 22.1987 11.9958 22.1732C11.9428 22.1477 11.8965 22.1101 11.8604 22.0634C11.778 21.9641 11.7327 21.8388 11.7323 21.7093C11.7233 21.5733 11.765 21.4389 11.849 21.3324C11.8838 21.2837 11.9296 21.2439 11.9826 21.2165C12.0357 21.189 12.0945 21.1745 12.1542 21.1742C12.2395 21.1757 12.3218 21.2063 12.3878 21.2609C12.4105 21.2609 12.4255 21.2345 12.4255 21.2345H12.4632L12.4858 21.4757Z" fill="#1D1D1B"/>
</g>
</g>
<defs>
<clipPath id="clip0_10_89">
<rect width="24" height="24" fill="white"/>
</clipPath>
</defs>
</svg>
