<svg width="24" height="24" viewBox="0 0 24 24" fill="none" xmlns="http://www.w3.org/2000/svg">
<g id="vscode-icons:file-type-yandex">
<path id="Vector" d="M16.41 1.5H13.41C10.41 1.5 7.35747 3.75 7.35747 8.715C7.29475 9.86582 7.55159 11.0116 8.09959 12.0255C8.64758 13.0394 9.46536 13.882 10.4625 14.46L6.74997 21.0975C6.66488 21.2418 6.62 21.4062 6.62 21.5737C6.62 21.7413 6.66488 21.9057 6.74997 22.05C6.82695 22.1821 6.93606 22.2926 7.06718 22.3713C7.1983 22.45 7.34717 22.4943 7.49997 22.5H9.36747C9.55695 22.5092 9.74472 22.4603 9.90559 22.3597C10.0665 22.2592 10.1927 22.1119 10.2675 21.9375L13.71 15.1875H13.965V21.6525C13.9658 21.768 13.9901 21.8822 14.0363 21.9881C14.0825 22.094 14.1497 22.1894 14.2338 22.2686C14.3179 22.3479 14.4172 22.4092 14.5257 22.449C14.6342 22.4887 14.7496 22.5061 14.865 22.5H16.5C16.7203 22.5082 16.935 22.4294 17.0978 22.2807C17.2606 22.1319 17.3583 21.9252 17.37 21.705V2.415C17.373 2.29779 17.3528 2.18113 17.3107 2.0717C17.2686 1.96227 17.2054 1.86221 17.1246 1.77724C17.0438 1.69226 16.947 1.62404 16.8399 1.57647C16.7327 1.5289 16.6172 1.50292 16.5 1.5H16.41ZM14.025 12.21H13.5825C11.8575 12.21 10.8375 10.8075 10.8375 8.46C10.8375 5.535 12.135 4.4925 13.3425 4.4925H14.0475L14.025 12.21Z" fill="#D61E3B"/>
</g>
</svg>
